<svg width="230" height="39" viewBox="0 0 230 39" fill="none" xmlns="http://www.w3.org/2000/svg">
<g clip-path="url(#clip0)">
<path d="M276.985 39L1.60654 38.9899C-0.080719 38.9899 -0.502533 37.9857 0.662476 36.7584C5.3226 31.8593 16.0489 20.6107 16.0489 20.6107C16.6314 20.0021 16.6414 18.9979 16.0489 18.3893C16.0489 18.3893 5.34268 7.13056 0.682556 2.24161C-0.492493 1.0143 -0.0707092 0.010143 1.62662 0.010143L258.244 0C259.51 0 260.966 0.943303 261.508 2.09961L277.869 37.6003C278.221 38.3711 277.829 39 276.985 39Z" fill="#F20B00"/>
<g opacity="0.25">
<g opacity="0.25">
<g opacity="0.25">
<path opacity="0.25" d="M-6.78943 1.06498L7.08044 84.8059L284.508 37.9349L270.638 -45.806L-6.78943 1.06498Z" fill="url(#paint0_linear)"/>
</g>
</g>
</g>
<path d="M27.608 23.765L28.197 22.834C28.2603 22.7327 28.33 22.682 28.406 22.682C28.482 22.682 28.5453 22.7073 28.596 22.758L28.805 22.91C29.451 23.3787 30.0527 23.613 30.61 23.613C31.066 23.613 31.4587 23.4927 31.788 23.252C32.13 23.0113 32.3833 22.7327 32.548 22.416C32.7127 22.0867 32.8393 21.7003 32.928 21.257C33.0293 20.801 33.0863 20.44 33.099 20.174C33.1243 19.8953 33.137 19.6167 33.137 19.338V19.091H29.698C29.4953 19.091 29.394 18.9897 29.394 18.787V17.704C29.394 17.4887 29.5017 17.381 29.717 17.381H33.137V17.191C33.137 16.7477 33.099 16.3233 33.023 15.918C32.9597 15.5127 32.8457 15.1073 32.681 14.702C32.529 14.284 32.2883 13.9547 31.959 13.714C31.6297 13.4607 31.237 13.334 30.781 13.334C30.211 13.334 29.5967 13.6 28.938 14.132L28.71 14.303C28.6593 14.341 28.615 14.36 28.577 14.36C28.5137 14.36 28.4503 14.3093 28.387 14.208L27.779 13.353C27.7283 13.277 27.703 13.2137 27.703 13.163C27.703 13.049 27.7853 12.9287 27.95 12.802C28.824 12.042 29.8373 11.662 30.99 11.662C31.7753 11.662 32.453 11.8393 33.023 12.194C33.6057 12.5487 34.0617 13.049 34.391 13.695C34.7203 14.3283 34.961 15.044 35.113 15.842C35.265 16.64 35.341 17.533 35.341 18.521C35.341 20.8897 34.9103 22.6313 34.049 23.746C33.2637 24.772 32.168 25.285 30.762 25.285C29.432 25.285 28.4187 24.9113 27.722 24.164C27.6207 24.0627 27.57 23.974 27.57 23.898C27.57 23.86 27.5827 23.8157 27.608 23.765ZM39.8679 25H38.4049C38.2022 25 38.1009 24.8987 38.1009 24.696V12.175C38.1009 12.0357 38.1642 11.966 38.2909 11.966H39.9439C40.0959 11.966 40.1719 12.0483 40.1719 12.213V17.362H41.1409C41.9896 17.362 42.5152 16.8553 42.7179 15.842L43.0409 14.341C43.2436 13.429 43.5159 12.802 43.8579 12.46C44.1112 12.2067 44.4216 12.0167 44.7889 11.89C45.1689 11.7507 45.4856 11.681 45.7389 11.681C45.9162 11.681 46.0302 11.757 46.0809 11.909L46.4039 13.011C46.4166 13.0363 46.4229 13.0743 46.4229 13.125C46.4229 13.2517 46.3406 13.334 46.1759 13.372L45.7959 13.448C45.5679 13.486 45.3779 13.5873 45.2259 13.752C45.0739 13.9167 44.9726 14.0813 44.9219 14.246C44.8712 14.4107 44.8142 14.645 44.7509 14.949L44.4849 16.146C44.2569 17.21 43.7756 17.894 43.0409 18.198C43.4209 18.3247 43.7566 18.578 44.0479 18.958C44.3519 19.338 44.5609 19.7497 44.6749 20.193L45.1309 22.112C45.1816 22.302 45.2259 22.473 45.2639 22.625C45.3146 22.7643 45.3652 22.8847 45.4159 22.986C45.4792 23.0747 45.5299 23.1507 45.5679 23.214C45.6059 23.2647 45.6629 23.309 45.7389 23.347C45.8149 23.3723 45.8656 23.3913 45.8909 23.404C45.9162 23.4167 45.9732 23.4293 46.0619 23.442C46.1506 23.4547 46.2076 23.461 46.2329 23.461L46.5939 23.518C46.7839 23.5813 46.8789 23.6573 46.8789 23.746C46.8789 23.7967 46.8726 23.8347 46.8599 23.86L46.4609 25.057C46.4356 25.1583 46.3976 25.2217 46.3469 25.247C46.3089 25.2723 46.2266 25.285 46.0999 25.285C45.2512 25.285 44.6116 25.095 44.1809 24.715C43.7502 24.335 43.4336 23.6827 43.2309 22.758L42.7939 20.725C42.6546 20.0663 42.4582 19.6293 42.2049 19.414C41.9516 19.186 41.5906 19.072 41.1219 19.072H40.1719V24.696C40.1719 24.8987 40.0706 25 39.8679 25ZM55.7013 23.67C55.7646 23.7713 55.7963 23.8537 55.7963 23.917C55.7963 23.993 55.7266 24.0943 55.5873 24.221C54.7006 24.9303 53.7253 25.285 52.6613 25.285C51.1666 25.285 50.0266 24.696 49.2413 23.518C48.4559 22.3273 48.0633 20.5983 48.0633 18.331C48.0633 17.6977 48.1013 17.0897 48.1773 16.507C48.2533 15.9243 48.3926 15.329 48.5953 14.721C48.8106 14.113 49.0766 13.5937 49.3933 13.163C49.7226 12.7197 50.1533 12.3587 50.6853 12.08C51.2299 11.8013 51.8506 11.662 52.5473 11.662C53.6493 11.662 54.6436 12.042 55.5303 12.802C55.6569 12.916 55.7203 13.0173 55.7203 13.106C55.7203 13.1693 55.6886 13.2517 55.6253 13.353L55.0173 14.322C54.9919 14.3853 54.9349 14.417 54.8463 14.417C54.7576 14.417 54.6816 14.3853 54.6183 14.322C53.8456 13.714 53.1806 13.41 52.6233 13.41C51.8253 13.41 51.2363 13.7837 50.8563 14.531C50.4763 15.2783 50.2863 16.45 50.2863 18.046C50.2863 21.694 51.1413 23.518 52.8513 23.518C53.4213 23.518 54.0293 23.271 54.6753 22.777C54.7893 22.6883 54.8779 22.644 54.9413 22.644C55.0173 22.644 55.0806 22.682 55.1313 22.758L55.7013 23.67ZM59.6286 25H58.1656C57.963 25 57.8616 24.8987 57.8616 24.696V12.175C57.8616 12.0357 57.925 11.966 58.0516 11.966H59.7046C59.8566 11.966 59.9326 12.0483 59.9326 12.213V17.362H60.9016C61.7503 17.362 62.276 16.8553 62.4786 15.842L62.8016 14.341C63.0043 13.429 63.2766 12.802 63.6186 12.46C63.872 12.2067 64.1823 12.0167 64.5496 11.89C64.9296 11.7507 65.2463 11.681 65.4996 11.681C65.677 11.681 65.791 11.757 65.8416 11.909L66.1646 13.011C66.1773 13.0363 66.1836 13.0743 66.1836 13.125C66.1836 13.2517 66.1013 13.334 65.9366 13.372L65.5566 13.448C65.3286 13.486 65.1386 13.5873 64.9866 13.752C64.8346 13.9167 64.7333 14.0813 64.6826 14.246C64.632 14.4107 64.575 14.645 64.5116 14.949L64.2456 16.146C64.0176 17.21 63.5363 17.894 62.8016 18.198C63.1816 18.3247 63.5173 18.578 63.8086 18.958C64.1126 19.338 64.3216 19.7497 64.4356 20.193L64.8916 22.112C64.9423 22.302 64.9866 22.473 65.0246 22.625C65.0753 22.7643 65.126 22.8847 65.1766 22.986C65.24 23.0747 65.2906 23.1507 65.3286 23.214C65.3666 23.2647 65.4236 23.309 65.4996 23.347C65.5756 23.3723 65.6263 23.3913 65.6516 23.404C65.677 23.4167 65.734 23.4293 65.8226 23.442C65.9113 23.4547 65.9683 23.461 65.9936 23.461L66.3546 23.518C66.5446 23.5813 66.6396 23.6573 66.6396 23.746C66.6396 23.7967 66.6333 23.8347 66.6206 23.86L66.2216 25.057C66.1963 25.1583 66.1583 25.2217 66.1076 25.247C66.0696 25.2723 65.9873 25.285 65.8606 25.285C65.012 25.285 64.3723 25.095 63.9416 24.715C63.511 24.335 63.1943 23.6827 62.9916 22.758L62.5546 20.725C62.4153 20.0663 62.219 19.6293 61.9656 19.414C61.7123 19.186 61.3513 19.072 60.8826 19.072H59.9326V24.696C59.9326 24.8987 59.8313 25 59.6286 25ZM76.7867 12.27V24.696C76.7867 24.8987 76.6853 25 76.4827 25H75.0007C74.798 25 74.6967 24.8987 74.6967 24.696V13.676H71.7707L71.7517 15.519C71.7263 17.3303 71.644 18.8883 71.5047 20.193C71.454 20.6237 71.3843 21.0353 71.2957 21.428C71.2197 21.8207 71.0867 22.264 70.8967 22.758C70.7067 23.252 70.4787 23.6763 70.2127 24.031C69.9593 24.373 69.611 24.6707 69.1677 24.924C68.7243 25.1647 68.224 25.285 67.6667 25.285C67.4513 25.285 67.3247 25.1963 67.2867 25.019L67.0017 23.898C67.0017 23.8853 67.0017 23.8663 67.0017 23.841C66.989 23.8157 66.9827 23.7967 66.9827 23.784C66.9827 23.6193 67.0713 23.5243 67.2487 23.499L67.5337 23.461C68.053 23.3977 68.4837 23.2077 68.8257 22.891C69.1677 22.5617 69.4273 21.884 69.6047 20.858C69.782 19.832 69.877 18.9263 69.8897 18.141C69.915 17.343 69.9277 16.241 69.9277 14.835C69.9277 14.5563 69.9277 14.3537 69.9277 14.227V12.251C69.9277 12.061 70.0227 11.966 70.2127 11.966H76.4827C76.6853 11.966 76.7867 12.0673 76.7867 12.27ZM82.4399 17.4H84.3589C84.3843 17.058 84.4223 16.7223 84.4729 16.393C84.5236 16.051 84.6059 15.6457 84.7199 15.177C84.8466 14.7083 85.0176 14.284 85.2329 13.904C85.4609 13.5113 85.7269 13.144 86.0309 12.802C86.3476 12.4473 86.7466 12.1687 87.2279 11.966C87.7219 11.7633 88.2666 11.662 88.8619 11.662C89.5333 11.662 90.1286 11.7887 90.6479 12.042C91.1673 12.2953 91.5789 12.6437 91.8829 13.087C92.1869 13.5303 92.4403 13.9863 92.6429 14.455C92.8583 14.9237 93.0103 15.4493 93.0989 16.032C93.1876 16.602 93.2446 17.0643 93.2699 17.419C93.2953 17.7737 93.3079 18.1347 93.3079 18.502C93.3079 18.882 93.2889 19.2683 93.2509 19.661C93.2256 20.041 93.1623 20.5097 93.0609 21.067C92.9723 21.6243 92.8203 22.1373 92.6049 22.606C92.4023 23.062 92.1426 23.5053 91.8259 23.936C91.5219 24.354 91.1103 24.6833 90.5909 24.924C90.0843 25.1647 89.5079 25.285 88.8619 25.285C88.1906 25.285 87.5889 25.1583 87.0569 24.905C86.5376 24.639 86.1133 24.297 85.7839 23.879C85.4546 23.461 85.1759 22.9733 84.9479 22.416C84.7326 21.8587 84.5806 21.314 84.4919 20.782C84.4033 20.2373 84.3526 19.68 84.3399 19.11H82.4399V24.677C82.4399 24.8923 82.3513 25 82.1739 25H80.6729C80.4576 25 80.3499 24.905 80.3499 24.715V12.27C80.3499 12.1433 80.3753 12.061 80.4259 12.023C80.4766 11.985 80.5653 11.966 80.6919 11.966H82.1169C82.3323 11.966 82.4399 12.0673 82.4399 12.27V17.4ZM88.7859 23.613C89.3053 23.613 89.7296 23.4547 90.0589 23.138C90.7429 22.492 91.0849 20.9403 91.0849 18.483C91.0849 16.0763 90.7429 14.531 90.0589 13.847C89.7169 13.505 89.2926 13.334 88.7859 13.334C88.2666 13.334 87.8359 13.505 87.4939 13.847C86.8099 14.531 86.4679 16.07 86.4679 18.464C86.4679 20.8707 86.7846 22.4033 87.4179 23.062C87.7726 23.4293 88.2286 23.613 88.7859 23.613ZM97.0917 18.825V17.761C97.0917 17.5583 97.1931 17.457 97.3957 17.457H97.9277C98.6751 17.457 99.2387 17.2733 99.6187 16.906C99.9861 16.5387 100.17 16.0383 100.17 15.405C100.17 14.8477 99.9924 14.3727 99.6377 13.98C99.2957 13.5747 98.8144 13.372 98.1937 13.372C97.5477 13.372 96.9207 13.619 96.3127 14.113L96.1037 14.284C96.0531 14.3347 95.9834 14.36 95.8947 14.36C95.7934 14.36 95.7174 14.322 95.6667 14.246L95.1347 13.486C95.0714 13.3847 95.0397 13.3087 95.0397 13.258C95.0397 13.1693 95.0967 13.068 95.2107 12.954C96.0341 12.0927 97.1424 11.662 98.5357 11.662C99.2831 11.662 99.9164 11.7887 100.436 12.042C100.968 12.2827 101.354 12.6057 101.595 13.011C101.835 13.4037 102 13.7773 102.089 14.132C102.177 14.474 102.222 14.8223 102.222 15.177C102.222 16.697 101.582 17.6723 100.303 18.103C101.835 18.6097 102.602 19.6863 102.602 21.333C102.602 22.511 102.266 23.4483 101.595 24.145C100.86 24.905 99.8087 25.285 98.4407 25.285C97.4654 25.285 96.6611 25.1393 96.0277 24.848C95.7111 24.7087 95.4134 24.5377 95.1347 24.335C94.8687 24.1323 94.7357 23.9487 94.7357 23.784C94.7357 23.7207 94.7484 23.67 94.7737 23.632L95.3627 22.606C95.4007 22.5553 95.4514 22.53 95.5147 22.53C95.6034 22.53 95.6857 22.5617 95.7617 22.625L95.9517 22.758C96.7371 23.3027 97.4717 23.575 98.1557 23.575C99.6884 23.575 100.455 22.8087 100.455 21.276C100.455 20.5287 100.22 19.984 99.7517 19.642C99.2957 19.3 98.7511 19.129 98.1177 19.129H97.3957C97.1931 19.129 97.0917 19.0277 97.0917 18.825ZM114.173 12.27V24.696C114.173 24.8987 114.072 25 113.869 25H112.387C112.185 25 112.083 24.8987 112.083 24.696V17.039C112.083 16.4563 112.128 15.823 112.216 15.139H112.159C111.995 15.747 111.735 16.412 111.38 17.134L107.732 24.734C107.656 24.9113 107.536 25 107.371 25H105.851C105.649 25 105.547 24.8987 105.547 24.696V12.27C105.547 12.0673 105.649 11.966 105.851 11.966H107.333C107.536 11.966 107.637 12.0673 107.637 12.27V19.433C107.637 19.6483 107.593 20.3767 107.504 21.618H107.561C107.587 21.5547 107.663 21.3583 107.789 21.029C107.916 20.6997 108.036 20.3893 108.15 20.098C108.264 19.8067 108.359 19.585 108.435 19.433L111.874 12.175C111.95 12.0357 112.052 11.966 112.178 11.966H113.869C114.072 11.966 114.173 12.0673 114.173 12.27ZM125.737 21.352C125.737 22.226 125.502 22.986 125.034 23.632C124.578 24.2653 123.976 24.6643 123.229 24.829C122.747 24.943 122.019 25 121.044 25H118.042C117.902 25 117.814 24.981 117.776 24.943C117.75 24.905 117.738 24.8163 117.738 24.677V12.289C117.738 12.1497 117.75 12.061 117.776 12.023C117.814 11.985 117.902 11.966 118.042 11.966H121.158C122.07 11.966 122.741 12.023 123.172 12.137C123.615 12.2383 123.995 12.4473 124.312 12.764C124.945 13.372 125.262 14.1827 125.262 15.196C125.262 16.5893 124.635 17.5837 123.381 18.179C124.951 18.6097 125.737 19.6673 125.737 21.352ZM123.134 15.424C123.134 14.7527 122.975 14.2713 122.659 13.98C122.342 13.6887 121.829 13.543 121.12 13.543H119.733V17.552H120.968C122.412 17.552 123.134 16.8427 123.134 15.424ZM123.001 22.834C123.393 22.5047 123.59 21.979 123.59 21.257C123.59 20.535 123.387 20.003 122.982 19.661C122.576 19.319 121.943 19.148 121.082 19.148H119.733V23.328H121.12C121.981 23.328 122.608 23.1633 123.001 22.834ZM136.989 24.677C136.989 24.8163 136.964 24.905 136.913 24.943C136.875 24.981 136.787 25 136.647 25H135.222C135.083 25 134.994 24.981 134.956 24.943C134.918 24.905 134.899 24.8163 134.899 24.677V19.034H130.719V24.677C130.719 24.8163 130.694 24.905 130.643 24.943C130.605 24.981 130.517 25 130.377 25H128.933C128.794 25 128.705 24.981 128.667 24.943C128.642 24.905 128.629 24.8163 128.629 24.677V12.289C128.629 12.1497 128.642 12.061 128.667 12.023C128.705 11.985 128.794 11.966 128.933 11.966H130.377C130.517 11.966 130.605 11.985 130.643 12.023C130.694 12.061 130.719 12.1497 130.719 12.289V17.419H134.899V12.289C134.899 12.1497 134.918 12.061 134.956 12.023C134.994 11.985 135.083 11.966 135.222 11.966H136.647C136.787 11.966 136.875 11.985 136.913 12.023C136.964 12.061 136.989 12.1497 136.989 12.289V24.677ZM148.692 18.388C148.692 22.986 147.172 25.285 144.132 25.285C141.181 25.285 139.705 22.9923 139.705 18.407C139.705 16.355 140.072 14.721 140.807 13.505C141.542 12.2763 142.694 11.662 144.265 11.662C147.216 11.662 148.692 13.904 148.692 18.388ZM146.469 18.464C146.469 15.044 145.722 13.334 144.227 13.334C143.442 13.334 142.859 13.752 142.479 14.588C142.112 15.4113 141.928 16.697 141.928 18.445C141.928 20.1423 142.105 21.428 142.46 22.302C142.815 23.176 143.391 23.613 144.189 23.613C144.974 23.613 145.551 23.2013 145.918 22.378C146.285 21.542 146.469 20.2373 146.469 18.464Z" fill="white"/>
</g>
<defs>
<linearGradient id="paint0_linear" x1="130.993" y1="-28.0087" x2="136.579" y2="5.05468" gradientUnits="userSpaceOnUse">
<stop stop-color="white"/>
<stop offset="0.1078" stop-color="#FEFAF8"/>
<stop offset="0.2316" stop-color="#FDECE3"/>
<stop offset="0.3632" stop-color="#FAD4C2"/>
<stop offset="0.5005" stop-color="#F6B498"/>
<stop offset="0.642" stop-color="#F28A69"/>
<stop offset="0.7872" stop-color="#EE593A"/>
<stop offset="0.9325" stop-color="#EB2310"/>
<stop offset="1" stop-color="#EA0A00"/>
</linearGradient>
<clipPath id="clip0">
<rect width="278" height="39" fill="white" transform="matrix(-1 0 0 1 278 0)"/>
</clipPath>
</defs>
</svg>
