<svg width="56" height="55" viewBox="0 0 56 55" fill="none" xmlns="http://www.w3.org/2000/svg">
<circle cx="27.8448" cy="27.5" r="26.9" stroke="#46248A" stroke-width="1.2"/>
<path d="M28.0898 20.1746C24.4943 20.1746 21.5151 23.1023 21.5151 26.7492C21.5151 30.3961 24.4429 33.3239 28.0898 33.3239C31.7367 33.3239 34.6645 30.3448 34.6645 26.7492C34.6645 23.1537 31.6853 20.1746 28.0898 20.1746ZM28.0898 30.9611C25.7784 30.9611 23.8779 29.0607 23.8779 26.7492C23.8779 24.4378 25.7784 22.5373 28.0898 22.5373C30.4012 22.5373 32.3017 24.4378 32.3017 26.7492C32.3017 29.0607 30.4012 30.9611 28.0898 30.9611Z" fill="#46248A"/>
<path d="M34.9211 21.5099C35.7438 21.5099 36.4107 20.843 36.4107 20.0203C36.4107 19.1977 35.7438 18.5308 34.9211 18.5308C34.0984 18.5308 33.4315 19.1977 33.4315 20.0203C33.4315 20.843 34.0984 21.5099 34.9211 21.5099Z" fill="#46248A"/>
<path d="M38.7736 16.168C37.4381 14.7811 35.5376 14.062 33.3803 14.062L22.7992 14.062C18.3305 14.062 15.3513 17.0412 15.3513 21.5099L15.3513 32.0397C15.3513 34.2483 16.0704 36.1488 17.5086 37.5357C18.8955 38.8712 20.7446 39.5389 22.8506 39.5389L33.329 39.5389C35.5376 39.5389 37.3868 38.8198 38.7223 37.5357C40.1091 36.2002 40.8282 34.2997 40.8282 32.091L40.8282 21.5099C40.8282 19.3526 40.1091 17.5034 38.7736 16.168ZM38.5682 32.091C38.5682 33.6833 38.0031 34.9674 37.0786 35.8406C36.154 36.7138 34.8699 37.1761 33.329 37.1761L22.8506 37.1761C21.3096 37.1761 20.0255 36.7138 19.1009 35.8406C18.1764 34.9161 17.7141 33.632 17.7141 32.0397L17.7141 21.5099C17.7141 19.969 18.1764 18.6848 19.1009 17.7603C19.9741 16.8871 21.3096 16.4248 22.8506 16.4248L33.4317 16.4248C34.9726 16.4248 36.2567 16.8871 37.1813 17.8116C38.0545 18.7362 38.5682 20.0203 38.5682 21.5099L38.5682 32.091Z" fill="#46248A"/>
</svg>
