<svg width="201" height="37" viewBox="0 0 201 37" fill="none" xmlns="http://www.w3.org/2000/svg">
<path d="M107.07 30.4589V6.14227H122.606V11.7792H113.541V30.4589H107.07Z" fill="#E6140D"/>
<path d="M142.154 30.4589V20.9344H132.518V30.4589H126.048V6.14227H132.518V15.2197H142.154V6.14227H148.624V30.4589H142.154Z" fill="#E6140D"/>
<path d="M178.654 6.14227V11.7792H186.205V30.4589H192.695V11.7792H200.286V6.14227H178.654Z" fill="#E6140D"/>
<path d="M169.116 30.4589V16.5998L158.811 30.4589H153.383V6.14227H159.873V19.8459L170.001 6.14227H175.605V30.4589H169.116Z" fill="#E6140D"/>
<path d="M69.8433 30.4589V15.9972L63.3732 23.6363L56.9032 15.9972V30.4589H50.4332V6.14227H56.8246L63.3732 14.5005L69.9219 6.14227H76.3133V30.4589H69.8433Z" fill="#E6140D"/>
<path d="M88.624 21.9063H94.6417L91.6329 14.2867L88.624 21.9063ZM98.0046 30.4589L96.6673 27.0573H86.5788L85.2415 30.4589H78.7125L88.683 6.14227H94.6811L104.652 30.4589H98.0046Z" fill="#E6140D"/>
<path d="M0.285767 11.0795C0.285767 8.12499 1.44604 5.34539 3.56994 3.24611C5.69383 1.14683 8.50602 0 11.4952 0H37.3753V5.63695H11.4952C10.0399 5.63695 8.64368 6.20065 7.6014 7.23085C6.55912 8.26105 5.98882 9.64113 5.98882 11.0795L5.94948 20.5263C5.69383 23.0338 3.76659 25.0553 1.28872 25.444L0.285767 25.5995V11.0795Z" fill="#E6140D"/>
<path d="M0.285767 36.6013V30.9643H26.1658C27.6211 30.9643 29.0173 30.4006 30.0596 29.351C31.1019 28.3208 31.6919 26.9601 31.6919 25.5023V16.5221C31.6919 13.8591 33.6978 11.5266 36.3723 11.1378L37.3753 10.9823V25.5023C37.3753 28.4568 36.215 31.2364 34.0911 33.3357C31.9672 35.435 29.155 36.5818 26.1658 36.5818H0.285767V36.6013Z" fill="#E6140D"/>
<path d="M22.2131 25.619V18.3298L18.8306 22.3146L15.4678 18.3298V25.619H10.984V11.2933H15.2318L18.8306 15.9001L22.4491 11.2933H26.6772V25.619H22.2131Z" fill="#E6140D"/>
</svg>
