<svg width="55" height="55" viewBox="0 0 55 55" fill="none" xmlns="http://www.w3.org/2000/svg">
<circle cx="27.5" cy="27.5" r="26.9" stroke="#46248A" stroke-width="1.2"/>
<path d="M40.5334 19.7988L35.6092 19.7988C35.4082 19.7988 35.211 19.8588 35.0385 19.9724C34.866 20.0861 34.7248 20.2491 34.6297 20.4442C34.6297 20.4442 32.6658 24.4283 32.0349 25.7702C30.3378 29.3801 29.2388 28.2468 29.2388 26.5714L29.2388 20.7947C29.2388 20.312 29.0647 19.849 28.7549 19.5077C28.445 19.1663 28.0247 18.9746 27.5864 18.9746L23.8841 18.9746C23.3799 18.9333 22.8745 19.0346 22.4159 19.2691C21.9573 19.5035 21.5607 19.8631 21.2638 20.3139C21.2638 20.3139 23.1437 19.9791 23.1437 22.7693C23.1437 23.4612 23.1761 25.4516 23.2056 27.1211C23.2111 27.3671 23.148 27.609 23.0248 27.8143C22.9015 28.0195 22.7241 28.1782 22.5164 28.2688C22.3087 28.3595 22.0807 28.3777 21.8633 28.3211C21.6459 28.2645 21.4494 28.1358 21.3005 27.9524C19.7851 25.6307 18.5298 23.116 17.562 20.4627C17.4789 20.2643 17.3458 20.0962 17.1786 19.9785C17.0114 19.8608 16.817 19.7984 16.6186 19.7988C15.5507 19.7988 13.4137 19.7988 12.1447 19.7988C12.0216 19.7978 11.9002 19.8298 11.7908 19.892C11.6815 19.9542 11.5874 20.0447 11.5168 20.1557C11.4462 20.2667 11.4011 20.395 11.3855 20.5294C11.3698 20.6639 11.384 20.8005 11.4268 20.9276C12.7853 25.0322 18.6373 37.9311 25.3168 37.9311L28.1282 37.9311C28.4227 37.9311 28.7052 37.8022 28.9135 37.5728C29.1218 37.3433 29.2388 37.0321 29.2388 36.7077L29.2388 34.8378C29.2388 34.6032 29.3011 34.3737 29.4181 34.1777C29.535 33.9816 29.7015 33.8275 29.8969 33.7344C30.0924 33.6413 30.3083 33.6132 30.5181 33.6535C30.7279 33.6939 30.9223 33.801 31.0775 33.9616L34.4426 37.4442C34.7448 37.757 35.1438 37.9311 35.5585 37.9311L39.9774 37.9311C42.1086 37.9311 42.1086 36.3021 40.9466 35.0416C40.1289 34.1544 37.178 30.7283 37.178 30.7283C36.9253 30.44 36.7746 30.0615 36.753 29.6614C36.7315 29.2614 36.8407 28.866 37.0607 28.5468C38.0145 27.1642 39.5746 24.901 40.2363 23.9314C41.1406 22.6062 42.7774 19.7988 40.5334 19.7988Z" fill="#46248A"/>
</svg>
