<svg width="56" height="55" viewBox="0 0 56 55" fill="none" xmlns="http://www.w3.org/2000/svg">
<circle cx="27.6724" cy="27.5" r="26.9" stroke="#46248A" stroke-width="1.2"/>
<g clip-path="url(#clip0)">
<path d="M27.671 37.9309H27.6654C26.8081 37.9253 19.22 37.8575 17.0655 37.2643C15.5624 36.8519 14.3766 35.6543 13.9702 34.1291C13.4079 31.9824 13.4469 27.8586 13.4469 27.5253C13.4469 27.1977 13.4079 23.0399 13.9702 20.8763V20.8707C14.371 19.3624 15.5847 18.1252 17.06 17.7128C17.0655 17.7128 17.0655 17.7128 17.0711 17.7072C19.1978 17.1423 26.8025 17.0745 27.6599 17.0688H27.6766C28.5395 17.0745 36.1498 17.1423 38.2765 17.7354C39.7741 18.1422 40.9599 19.3454 41.3663 20.8707C41.9508 23.0343 41.8951 27.2033 41.8896 27.5535C41.8951 27.8981 41.9286 31.9881 41.3663 34.146V34.1517C40.9599 35.6769 39.7741 36.8802 38.2709 37.2869H38.2653C36.1387 37.8518 28.5339 37.9253 27.6766 37.9309H27.671ZM16.1191 21.4582C15.6236 23.3676 15.6737 27.4745 15.6737 27.514V27.5422C15.657 28.6834 15.7127 31.9824 16.1191 33.5416C16.3195 34.2873 16.9041 34.8804 17.6445 35.0838C19.2312 35.5188 25.4107 35.6543 27.671 35.6713C29.9368 35.6543 36.1276 35.5244 37.7031 35.1064C38.4435 34.903 39.028 34.3099 39.2229 33.5642C39.6349 31.9768 39.685 28.6947 39.6683 27.5648C39.6683 27.5535 39.6683 27.5423 39.6683 27.531C39.6905 26.3785 39.646 23.0399 39.2229 21.4638V21.4582C39.0225 20.7069 38.4379 20.1137 37.6975 19.9103C36.1276 19.4754 29.9368 19.3398 27.671 19.3228C25.4052 19.3398 19.2256 19.4697 17.6445 19.8877C16.9152 20.0968 16.3195 20.7069 16.1191 21.4582ZM24.8373 32.0672V22.9326L32.6147 27.4971L24.8373 32.0672Z" fill="#46248A"/>
</g>
<defs>
<clipPath id="clip0">
<rect width="28.4483" height="20.8621" fill="white" transform="translate(13.4482 17.0688)"/>
</clipPath>
</defs>
</svg>
